<svg width="155" height="124" viewBox="0 0 155 124" fill="none" xmlns="http://www.w3.org/2000/svg">
<path d="M93.1061 87.3444L77.6043 61.4556L61.8603 87.3444C60.407 90.0059 55.5627 94.6029 48.7807 92.6673L15.5972 82.9893V102.829C15.5972 106.459 18.0194 109.604 21.4104 110.33L73.7289 123.637C76.151 124.121 78.8154 124.121 81.2375 123.637L133.556 110.33C137.189 109.604 139.611 106.459 139.611 102.829V82.9893L106.428 92.6673C99.4037 94.6029 94.5594 90.0059 93.1061 87.3444ZM47.0852 34.841C46.6008 33.6312 46.6008 32.4215 46.6008 30.9698C46.6008 22.5015 53.3828 15.4849 62.1025 15.4849C70.5801 15.4849 77.6043 22.5015 77.6043 30.9698C77.6043 33.8732 76.6354 36.2927 75.4244 38.4702L77.6043 38.7122L115.148 33.8732L123.867 10.162C124.594 8.22634 123.383 6.04878 121.445 5.32293L107.881 0.241951C105.943 -0.483902 103.764 0.725854 103.037 2.66146L92.8639 30.2439C92.6216 13.5493 78.8154 0 62.1025 0C44.9052 0 31.099 14.0332 31.099 30.9698C31.099 31.6956 31.099 32.1795 31.099 32.9054L47.0852 34.841ZM12.9328 40.8898L0.337652 65.8107C-0.631208 67.9883 0.579868 70.6498 2.7598 71.3756L50.7184 85.1668C52.4139 85.6507 54.3516 84.9249 55.3205 83.2312L77.6043 46.4546L16.8083 38.9541C15.1128 38.7122 13.6595 39.438 12.9328 40.8898ZM154.629 65.8107L142.034 40.8898C141.307 39.438 139.854 38.7122 138.158 38.9541L77.6043 46.4546L99.6459 83.4732C100.615 84.9249 102.552 85.6507 104.248 85.1668L152.207 71.3756C154.629 70.6498 155.598 67.9883 154.629 65.8107Z" fill="white" fill-opacity="0.38"/>
</svg>
