<svg width="149" height="48" viewBox="0 0 149 48" fill="none" xmlns="http://www.w3.org/2000/svg">
<rect width="149" height="48" fill="white"/>
<path d="M58.0834 38.5174C59.5687 38.5174 60.3231 38.0103 60.3231 36.9842C60.3298 36.7037 60.2605 36.4266 60.1227 36.1823C59.9838 35.9543 59.7992 35.7575 59.5805 35.6044C59.3429 35.4328 59.0856 35.2903 58.8142 35.1798L57.883 34.826C57.5218 34.7039 57.1677 34.5622 56.822 34.4014C56.5084 34.2521 56.2184 34.0574 55.9615 33.8236C55.7133 33.603 55.5128 33.3341 55.3721 33.0334C55.2216 32.6837 55.1492 32.3054 55.1599 31.9248C55.1395 31.5292 55.212 31.1343 55.3717 30.7718C55.5314 30.4093 55.7738 30.0892 56.0794 29.8373C56.797 29.298 57.6824 29.0306 58.5785 29.0825C59.1505 29.0781 59.7207 29.1454 60.276 29.283C60.6668 29.3667 61.0411 29.5141 61.3841 29.7194L60.9243 30.8987C60.6337 30.7401 60.325 30.6173 60.0048 30.5331C59.5431 30.3896 59.062 30.318 58.5785 30.3209C58.3207 30.3172 58.0634 30.3449 57.8122 30.4034C57.5937 30.4574 57.3862 30.5492 57.1992 30.6747C57.0125 30.7849 56.8599 30.9445 56.7579 31.1359C56.656 31.3273 56.6089 31.5432 56.6216 31.7597C56.6145 32.0021 56.6715 32.2421 56.7866 32.4555C56.9008 32.653 57.058 32.8223 57.2464 32.9508C57.4599 33.1043 57.6891 33.2348 57.9301 33.34C58.1895 33.458 58.4724 33.5759 58.7907 33.6938C59.1089 33.8118 59.6394 34.0476 59.9695 34.2245C60.3169 34.3895 60.6385 34.604 60.9243 34.8614C61.1925 35.1044 61.4055 35.4019 61.5491 35.7341C61.7099 36.1266 61.7862 36.5485 61.7731 36.9724C61.7906 37.3702 61.7106 37.7662 61.54 38.1259C61.3695 38.4857 61.1136 38.7982 60.7947 39.0363C59.9753 39.564 59.0088 39.816 58.0362 39.7557C57.6612 39.7603 57.2866 39.7326 56.9163 39.6732C56.6104 39.6276 56.3074 39.5645 56.0086 39.4845C55.776 39.4203 55.5476 39.3416 55.3249 39.2486L54.877 39.0363L55.3013 37.857C55.6343 38.028 55.9814 38.1701 56.3387 38.2815C56.9035 38.4549 57.4928 38.5346 58.0834 38.5174Z" fill="#171717"/>
<path d="M63.541 39.5316V29.3184H69.777V30.4977H64.9792V33.5287H69.2466V34.708H64.9792V38.2461H70.1425V39.4255L63.541 39.5316Z" fill="#171717"/>
<path d="M76.9572 35.2616L77.5584 36.0282C77.7942 36.3427 78.0418 36.6965 78.3011 37.0896C78.5487 37.4788 78.808 37.8916 79.0556 38.269C79.2869 38.6515 79.4993 39.0451 79.6921 39.4484H78.1361C77.9357 39.0827 77.7235 38.6936 77.4995 38.269C77.2755 37.8444 77.028 37.5142 76.7922 37.1722C76.5564 36.8302 76.3207 36.4999 76.0967 36.1933L75.4719 35.3913H73.3854V39.3894H71.959V29.4827C72.4051 29.3837 72.8584 29.3206 73.3146 29.2941C73.8098 29.2941 74.2577 29.2351 74.6703 29.2351C75.8208 29.1578 76.9666 29.4423 77.9475 30.0488C78.5472 30.5415 78.9404 31.2412 79.0495 32.0098C79.1587 32.7784 78.9757 33.56 78.5369 34.2002C78.1324 34.7086 77.5806 35.0793 76.9572 35.2616ZM74.7882 30.4616C74.1752 30.4616 73.7155 30.4616 73.3854 30.4616V34.3063H74.411C74.8521 34.3089 75.2929 34.2852 75.7313 34.2356C76.0797 34.203 76.4193 34.1071 76.7333 33.9525C76.9911 33.8217 77.2075 33.6216 77.358 33.3746C77.4982 33.0673 77.5707 32.7335 77.5707 32.3958C77.5707 32.058 77.4982 31.7242 77.358 31.4169C77.2077 31.1719 77.0017 30.9658 76.7568 30.8154C76.4822 30.6625 76.183 30.5587 75.8727 30.5088C75.5132 30.4619 75.1504 30.4461 74.7882 30.4616Z" fill="#171717"/>
<path d="M87.2949 34.507H88.7331V39.2834L88.2262 39.4132L87.4599 39.5665L86.5051 39.6844C86.1566 39.722 85.8064 39.7417 85.4559 39.7434C84.787 39.7522 84.1226 39.6321 83.4991 39.3896C82.9203 39.163 82.4004 38.8082 81.9784 38.3517C81.5307 37.8744 81.1893 37.3077 80.9764 36.6888C80.7329 35.9553 80.6173 35.1854 80.6345 34.4127C80.622 33.6364 80.7539 32.8645 81.0235 32.1365C81.2857 31.5086 81.6704 30.9392 82.1552 30.4618C82.5852 30.0404 83.0939 29.7078 83.6523 29.4829C84.2603 29.2435 84.9086 29.1234 85.562 29.1291C85.9565 29.1261 86.3506 29.1537 86.7408 29.2117C87.0525 29.258 87.3599 29.329 87.6603 29.424C87.8779 29.4872 88.0907 29.566 88.2969 29.6598L88.627 29.8368L88.1672 31.0161C87.8041 30.7952 87.4052 30.6395 86.9884 30.5562C86.5668 30.4292 86.1314 30.354 85.6917 30.3321C85.2055 30.3254 84.7233 30.4219 84.2771 30.6151C83.8521 30.7952 83.4763 31.0742 83.1808 31.4289C82.8687 31.8088 82.6325 32.2452 82.4853 32.7144C82.2799 33.2577 82.1683 33.832 82.1552 34.4127C82.1471 34.9789 82.2226 35.5432 82.3792 36.0874C82.5049 36.5558 82.7256 36.9934 83.0275 37.3729C83.3164 37.7303 83.6834 38.0168 84.1003 38.2102C84.5771 38.4131 85.0911 38.5135 85.6092 38.5051C85.9602 38.5096 86.3111 38.4859 86.6583 38.4343C86.87 38.4095 87.0791 38.3661 87.2831 38.3046L87.2949 34.507Z" fill="#171717"/>
<path d="M90.9727 39.5316V29.3184H97.1969V30.4977H92.399V33.5287H96.6664V34.708H92.399V38.2461H97.5741V39.4255L90.9727 39.5316Z" fill="#171717"/>
<path d="M101.818 39.5316V35.4392C101.134 34.3896 100.498 33.3518 99.8967 32.3257C99.2955 31.2997 98.7179 30.2972 98.1992 29.3184H99.8378C100.215 30.1203 100.628 30.9459 101.087 31.7714C101.547 32.597 102.03 33.3989 102.514 34.1302C102.997 33.3636 103.469 32.5616 103.928 31.7714C104.388 30.9813 104.812 30.1203 105.201 29.3184H106.793C106.262 30.2972 105.697 31.2997 105.095 32.3139C104.494 33.3282 103.917 34.366 103.197 35.4039V39.5316H101.818Z" fill="#171717"/>
<path d="M60.0647 8.25586C60.3241 8.7276 60.6188 9.30549 60.9606 9.98952C61.3025 10.6735 61.6444 11.4283 61.998 12.2303C62.3517 13.0323 62.7289 13.8578 63.0825 14.6952C63.4362 15.5325 63.778 16.3227 64.0845 17.0539L65.0865 14.6952C65.452 13.8578 65.8056 13.0323 66.1711 12.2303C66.5365 11.4283 66.8784 10.6853 67.2202 9.98952C67.5621 9.2937 67.845 8.7276 68.1044 8.25586H71.134C71.2754 9.2308 71.4051 10.3276 71.523 11.5463C71.6526 12.7256 71.7587 14.0347 71.8412 15.3438C71.9238 16.6529 72.0181 17.9856 72.1006 19.3065C72.1831 20.6274 72.242 21.8657 72.301 23.0332H69.0592C69.0592 21.5944 68.9649 20.0377 68.8942 18.3158C68.8234 16.5939 68.7173 14.9192 68.5759 13.1974L67.7153 15.1905C67.4088 15.9099 67.0906 16.6293 66.7841 17.3605L65.8999 19.4362L65.1691 21.1345H62.8114L62.1159 19.448C61.8212 18.7875 61.5265 18.0917 61.22 17.3723C60.9135 16.6529 60.607 15.9217 60.2887 15.2023L59.4399 13.2092C59.2985 14.931 59.1924 16.6411 59.1217 18.3276C59.0509 20.0141 58.992 21.5826 58.9448 23.045H55.7148C55.7148 21.8657 55.8445 20.6863 55.927 19.3183C56.0096 17.9502 56.0803 16.6765 56.1746 15.3556C56.2689 14.0347 56.375 12.7728 56.4929 11.5581C56.6108 10.3433 56.7522 9.19935 56.8937 8.26765L60.0647 8.25586Z" fill="#171717"/>
<path d="M85.1727 23.0215C85.0077 22.5144 84.8309 21.9837 84.6423 21.4412L84.0764 19.8255H78.3119L77.7461 21.4412L77.2274 23.0215H73.7734C74.3275 21.4294 74.858 19.9552 75.3531 18.6107C75.8482 17.2662 76.3433 15.9807 76.8266 14.7896C77.3099 13.5984 77.7697 12.4309 78.2294 11.393C78.6892 10.3552 79.1725 9.27018 79.6794 8.24414H82.8269C83.3102 9.27018 83.7935 10.3198 84.265 11.393C84.7366 12.4663 85.2081 13.5984 85.6914 14.7896C86.1747 15.9807 86.6581 17.2545 87.1532 18.6107C87.6483 19.967 88.1787 21.4294 88.7446 23.0215H85.1727ZM81.1765 11.5935C81.1058 11.8058 80.9997 12.1006 80.8582 12.4663L80.3631 13.7518C80.1824 14.2392 79.9819 14.7699 79.7619 15.3439C79.5261 15.9336 79.3022 16.5233 79.0664 17.1837H83.3338C83.098 16.535 82.8858 15.9218 82.6736 15.3439C82.4614 14.766 82.261 14.2235 82.0724 13.74C81.8838 13.2564 81.707 12.8319 81.5655 12.4545C81.424 12.0771 81.2708 11.794 81.1765 11.5935Z" fill="#171717"/>
<path d="M99.8377 8.25586V11.0863H95.3936V23.0215H92.0693V11.0745H87.6133V8.25586H99.8377Z" fill="#171717"/>
<path d="M107.053 23.0216C106.463 21.7833 105.874 20.4978 105.32 19.1533C104.766 17.8088 104.141 16.4997 103.681 15.2024C103.222 13.9051 102.691 12.6432 102.267 11.4403C101.842 10.2373 101.465 9.1877 101.088 8.24422H104.754C105.025 9.10515 105.343 10.0251 105.674 11.0039C106.004 11.9828 106.357 12.9735 106.711 13.9523C107.065 14.9312 107.395 15.8747 107.725 16.771C108.055 17.6673 108.35 18.4457 108.644 19.1297C108.927 18.4811 109.222 17.7145 109.552 16.771L110.578 13.9523C110.931 12.9735 111.273 11.9946 111.603 11.0039C111.933 10.0133 112.251 9.09336 112.534 8.23242H116.071C115.741 9.17591 115.364 10.2373 114.892 11.4403C114.421 12.6432 113.996 13.8816 113.477 15.1907C112.959 16.4997 112.428 17.8206 111.862 19.1533C111.297 20.486 110.684 21.7715 110.13 23.0098L107.053 23.0216Z" fill="#171717"/>
<path d="M118.027 8.25586H121.352V23.0215H118.027V8.25586Z" fill="#171717"/>
<path d="M124.77 23.0215V8.25586H134.742V11.0392H128.129V13.9404H134.023V16.6647H128.129V20.2028H135.202V22.9979L124.77 23.0215Z" fill="#171717"/>
<path d="M148.346 10.5438C147.887 11.0156 147.344 11.6288 146.72 12.3718C146.095 13.1148 145.447 13.9286 144.775 14.8131C144.103 15.6976 143.454 16.6057 142.794 17.5374C142.134 18.4691 141.615 19.3772 141.05 20.2264H148.57V23.0215H136.959V21.0401C137.36 20.3207 137.843 19.507 138.421 18.6224C138.998 17.7379 139.6 16.8298 140.224 15.9335C140.849 15.0372 141.486 14.1527 142.122 13.3035C142.759 12.4544 143.372 11.7114 143.926 11.0392H137.301V8.25586H148.346V10.5438Z" fill="#171717"/>
<path fill-rule="evenodd" clip-rule="evenodd" d="M23.3085 2.33937e-05C29.3999 -0.00226599 35.2665 2.30142 39.73 6.44836C44.1936 10.5953 46.9234 16.2783 47.3712 22.3559C47.8189 28.4336 45.9515 34.4556 42.144 39.2125C38.3365 43.9694 32.8709 47.1087 26.845 48C27.87 46.4569 28.7425 44.8178 29.4502 43.1057C29.7767 42.3345 30.0639 41.5472 30.3107 40.7469L30.3815 40.5346L30.1811 40.4521H30.0986C28.7709 39.8471 27.5707 38.9946 26.5621 37.9401C24.6057 35.9048 23.5299 33.1802 23.5678 30.3568V30.227C23.5609 28.5206 23.9652 26.8377 24.7467 25.3209C25.4063 24.0699 26.2801 22.9442 27.3283 21.9951C27.8138 21.56 28.3343 21.1656 28.8844 20.8157L29.0848 20.686L28.9551 20.4855C27.9062 18.9507 26.5117 17.6836 24.884 16.7864C23.2562 15.8892 21.4406 15.3869 19.5834 15.3199H18.7818C17.0023 15.3882 15.2513 15.7882 13.6185 16.4993C12.4661 17.0728 11.2343 17.4703 9.96413 17.6786C8.73287 17.5108 7.53789 17.1402 6.42764 16.5818C4.96866 15.8739 3.38851 15.4496 1.77126 15.3317H1.64159H0.816406C2.58699 10.8079 5.68126 6.92418 9.69435 4.18866C13.7074 1.45315 18.4524 -0.00673993 23.3085 2.33937e-05ZM17.1786 11.4398C18.9095 9.39401 19.8726 6.80798 19.9017 4.12779C19.8997 3.78499 19.88 3.44252 19.8427 3.10174V2.87766H19.6188C16.6682 3.15648 13.9436 4.57865 12.0271 6.84032C10.3269 8.81663 9.34625 11.311 9.24504 13.9165C9.22123 14.2541 9.22123 14.5931 9.24504 14.9307V15.1194H9.43366H9.96413C11.3609 15.0637 12.7291 14.706 13.9745 14.0708C15.2199 13.4356 16.313 12.538 17.1786 11.4398Z" fill="#171717"/>
</svg>
