<svg width="170" height="56" viewBox="0 0 170 56" fill="none" xmlns="http://www.w3.org/2000/svg">
<rect width="170" height="56" fill="white"/>
<path d="M65.8552 44.294C67.5632 44.294 68.4308 43.7108 68.4308 42.5309C68.4385 42.2084 68.3589 41.8897 68.2004 41.6087C68.0406 41.3465 67.8283 41.1202 67.5768 40.9442C67.3036 40.7469 67.0078 40.583 66.6957 40.4559L65.6247 40.0491C65.2095 39.9087 64.8022 39.7457 64.4047 39.5608C64.044 39.3891 63.7106 39.1652 63.4151 38.8963C63.1298 38.6427 62.8991 38.3335 62.7373 37.9876C62.5643 37.5855 62.481 37.1504 62.4933 36.7128C62.4699 36.2578 62.5533 35.8037 62.7369 35.3869C62.9206 34.97 63.1993 34.602 63.5507 34.3123C64.3759 33.6921 65.3941 33.3846 66.4245 33.4443C67.0823 33.4392 67.7381 33.5166 68.3766 33.6749C68.826 33.7711 69.2565 33.9406 69.6509 34.1767L69.1222 35.5329C68.788 35.3505 68.433 35.2093 68.0648 35.1125C67.5338 34.9474 66.9806 34.8651 66.4245 34.8683C66.1281 34.8642 65.8322 34.896 65.5434 34.9633C65.2921 35.0254 65.0535 35.131 64.8385 35.2752C64.6238 35.402 64.4482 35.5855 64.331 35.8056C64.2138 36.0258 64.1596 36.274 64.1743 36.5229C64.1661 36.8017 64.2316 37.0777 64.364 37.3231C64.4953 37.5502 64.676 37.7449 64.8927 37.8927C65.1383 38.0692 65.4018 38.2192 65.679 38.3402C65.9772 38.4759 66.3025 38.6115 66.6685 38.7471C67.0346 38.8827 67.6446 39.154 68.0241 39.3574C68.4237 39.5471 68.7935 39.7938 69.1222 40.0898C69.4305 40.3692 69.6755 40.7114 69.8406 41.0934C70.0255 41.5447 70.1133 42.0299 70.0982 42.5174C70.1183 42.9748 70.0263 43.4302 69.8302 43.8438C69.6341 44.2575 69.3398 44.6169 68.9731 44.8907C68.0308 45.4975 66.9194 45.7874 65.801 45.718C65.3698 45.7232 64.9389 45.6915 64.5132 45.6231C64.1614 45.5706 63.8129 45.4982 63.4693 45.4061C63.2018 45.3324 62.9392 45.2418 62.6831 45.1349L62.168 44.8907L62.656 43.5345C63.0389 43.7312 63.438 43.8946 63.8489 44.0228C64.4984 44.2222 65.1761 44.3138 65.8552 44.294Z" fill="#171717"/>
<path d="M72.1309 45.4601V33.7153H79.302V35.0715H73.7847V38.557H78.692V39.9132H73.7847V43.9819H79.7223V45.3381L72.1309 45.4601Z" fill="#171717"/>
<path d="M87.5583 40.5505L88.2497 41.432C88.5208 41.7937 88.8055 42.2006 89.1037 42.6526C89.3884 43.1002 89.6866 43.5749 89.9713 44.0088C90.2373 44.4487 90.4816 44.9013 90.7033 45.3651H88.9139C88.6835 44.9446 88.4395 44.4971 88.1819 44.0088C87.9243 43.5206 87.6397 43.1409 87.3685 42.7476C87.0974 42.3543 86.8263 41.9745 86.5687 41.6219L85.8503 40.6997H83.4508V45.2972H81.8105V33.9051C82.3236 33.7911 82.8449 33.7186 83.3695 33.6881C83.9389 33.6881 84.454 33.6202 84.9284 33.6202C86.2514 33.5314 87.5691 33.8586 88.697 34.556C89.3867 35.1225 89.8389 35.9272 89.9644 36.811C90.0898 37.6949 89.8795 38.5937 89.3748 39.3299C88.9097 39.9145 88.2752 40.3409 87.5583 40.5505ZM85.064 35.0307C84.3591 35.0307 83.8304 35.0307 83.4508 35.0307V39.452H84.6302C85.1375 39.4549 85.6444 39.4277 86.1485 39.3706C86.5492 39.3331 86.9397 39.2228 87.3008 39.0451C87.5973 38.8947 87.8461 38.6645 88.0192 38.3806C88.1803 38.0272 88.2637 37.6433 88.2637 37.2549C88.2637 36.8665 88.1803 36.4826 88.0192 36.1292C87.8463 35.8475 87.6095 35.6105 87.3279 35.4376C87.0121 35.2617 86.668 35.1424 86.3112 35.085C85.8978 35.031 85.4805 35.0128 85.064 35.0307Z" fill="#171717"/>
<path d="M99.4463 39.6826H101.1V45.1753L100.517 45.3245L99.636 45.5008L98.538 45.6364C98.1373 45.6797 97.7346 45.7023 97.3315 45.7042C96.5623 45.7144 95.7982 45.5763 95.0812 45.2974C94.4157 45.0368 93.8178 44.6288 93.3325 44.1039C92.8177 43.555 92.425 42.9033 92.1802 42.1916C91.9003 41.3481 91.7673 40.4627 91.7871 39.5741C91.7727 38.6814 91.9244 37.7939 92.2344 36.9567C92.5359 36.2345 92.9784 35.5798 93.5358 35.0308C94.0303 34.5462 94.6153 34.1637 95.2574 33.9052C95.9566 33.6299 96.7022 33.4917 97.4535 33.4983C97.9072 33.4948 98.3604 33.5265 98.8091 33.5932C99.1675 33.6466 99.521 33.7282 99.8665 33.8374C100.117 33.9101 100.361 34.0007 100.599 34.1086L100.978 34.312L100.449 35.6682C100.032 35.4142 99.573 35.2352 99.0938 35.1393C98.609 34.9933 98.1083 34.9068 97.6026 34.8816C97.0435 34.874 96.4891 34.9849 95.9759 35.2071C95.4872 35.4143 95.055 35.7351 94.7152 36.1429C94.3563 36.5798 94.0847 37.0817 93.9154 37.6212C93.6793 38.246 93.5509 38.9064 93.5358 39.5741C93.5265 40.2253 93.6133 40.8742 93.7934 41.5C93.938 42.0386 94.1918 42.5418 94.539 42.9782C94.8712 43.3893 95.2932 43.7187 95.7726 43.9411C96.3209 44.1744 96.912 44.2899 97.5077 44.2802C97.9114 44.2854 98.3149 44.2582 98.7142 44.1988C98.9576 44.1703 99.198 44.1204 99.4327 44.0496L99.4463 39.6826Z" fill="#171717"/>
<path d="M103.676 45.4601V33.7153H110.833V35.0715H105.316V38.557H110.223V39.9132H105.316V43.9819H111.267V45.3381L103.676 45.4601Z" fill="#171717"/>
<path d="M116.148 45.4601V40.7541C115.362 39.547 114.63 38.3536 113.938 37.1737C113.247 35.9938 112.583 34.841 111.986 33.7153H113.871C114.304 34.6376 114.779 35.5869 115.308 36.5363C115.836 37.4856 116.392 38.4078 116.948 39.2487C117.504 38.3671 118.046 37.4449 118.575 36.5363C119.103 35.6276 119.591 34.6376 120.039 33.7153H121.869C121.259 34.841 120.608 35.9938 119.917 37.1601C119.225 38.3265 118.561 39.5199 117.734 40.7134V45.4601H116.148Z" fill="#171717"/>
<path d="M68.133 9.49414C68.4313 10.0366 68.7702 10.7012 69.1633 11.4878C69.5564 12.2744 69.9495 13.1424 70.3562 14.0646C70.7629 14.9868 71.1967 15.9361 71.6034 16.8991C72.0101 17.862 72.4032 18.7706 72.7556 19.6115L73.9079 16.8991C74.3281 15.9361 74.7348 14.9868 75.1551 14.0646C75.5753 13.1424 75.9684 12.2879 76.3615 11.4878C76.7547 10.6876 77.08 10.0366 77.3782 9.49414H80.8621C81.0248 10.6153 81.1739 11.8766 81.3095 13.278C81.4586 14.6342 81.5806 16.1396 81.6755 17.645C81.7704 19.1504 81.8789 20.6829 81.9737 22.2018C82.0686 23.7208 82.1364 25.1448 82.2042 26.4875H78.4763C78.4763 24.8329 78.3678 23.0427 78.2865 21.0626C78.2052 19.0826 78.0832 17.1567 77.9205 15.1767L76.9309 17.4687C76.5784 18.296 76.2124 19.1232 75.86 19.9641L74.8433 22.351L74.0028 24.304H71.2916L70.4918 22.3646C70.1529 21.6051 69.814 20.8049 69.4615 19.9777C69.1091 19.1504 68.7566 18.3095 68.3906 17.4822L67.4146 15.1902C67.2519 17.1703 67.1299 19.1368 67.0486 21.0762C66.9672 23.0156 66.8994 24.8193 66.8452 26.501H63.1309C63.1309 25.1448 63.28 23.7886 63.3749 22.2154C63.4698 20.6422 63.5511 19.1775 63.6595 17.6585C63.768 16.1396 63.89 14.6884 64.0256 13.2915C64.1611 11.8946 64.3238 10.5791 64.4865 9.5077L68.133 9.49414Z" fill="#171717"/>
<path d="M97.0071 26.4738C96.8173 25.8906 96.614 25.2803 96.3971 24.6565L95.7464 22.7985H89.1175L88.4668 24.6565L87.8704 26.4738H83.8984C84.5356 24.6429 85.1456 22.9477 85.7149 21.4016C86.2843 19.8555 86.8537 18.3772 87.4095 17.0074C87.9653 15.6377 88.4939 14.295 89.0226 13.1016C89.5513 11.9081 90.1071 10.6604 90.69 9.48047H94.3095C94.8653 10.6604 95.4211 11.8674 95.9633 13.1016C96.5055 14.3357 97.0478 15.6377 97.6036 17.0074C98.1594 18.3772 98.7152 19.8419 99.2845 21.4016C99.8539 22.9612 100.464 24.6429 101.115 26.4738H97.0071ZM92.4116 13.3321C92.3303 13.5762 92.2083 13.9153 92.0456 14.3357L91.4763 15.814C91.2684 16.3745 91.038 16.9848 90.7849 17.6449C90.5138 18.323 90.2562 19.0011 89.9851 19.7606H94.8924C94.6213 19.0146 94.3773 18.3094 94.1332 17.6449C93.8892 16.9803 93.6588 16.3565 93.4419 15.8004C93.225 15.2444 93.0216 14.7561 92.859 14.3221C92.6963 13.8882 92.5201 13.5627 92.4116 13.3321Z" fill="#171717"/>
<path d="M113.87 9.49365V12.7486H108.759V26.4734H104.937V12.735H99.8125V9.49365H113.87Z" fill="#171717"/>
<path d="M122.168 26.4737C121.49 25.0497 120.812 23.5714 120.175 22.0253C119.538 20.4792 118.82 18.9738 118.291 17.482C117.762 15.9902 117.152 14.539 116.664 13.1557C116.176 11.7724 115.742 10.5653 115.309 9.48036H119.525C119.836 10.4704 120.202 11.5282 120.582 12.6539C120.961 13.7796 121.368 14.9188 121.775 16.0444C122.182 17.1701 122.561 18.2551 122.941 19.2858C123.32 20.3165 123.659 21.2116 123.998 21.9982C124.323 21.2523 124.662 20.3707 125.042 19.2858L126.221 16.0444C126.628 14.9188 127.021 13.7931 127.401 12.6539C127.78 11.5147 128.146 10.4568 128.472 9.4668H132.538C132.159 10.5518 131.725 11.7724 131.183 13.1557C130.641 14.539 130.152 15.9631 129.556 17.4685C128.96 18.9738 128.35 20.4928 127.699 22.0253C127.048 23.5578 126.343 25.0361 125.706 26.4601L122.168 26.4737Z" fill="#171717"/>
<path d="M134.789 9.49365H138.612V26.4734H134.789V9.49365Z" fill="#171717"/>
<path d="M142.541 26.4734V9.49365H154.009V12.6943H146.404V16.0306H153.182V19.1634H146.404V23.2321H154.538V26.4463L142.541 26.4734Z" fill="#171717"/>
<path d="M169.654 12.1247C169.125 12.6672 168.501 13.3724 167.783 14.2268C167.064 15.0812 166.319 16.017 165.546 17.0342C164.774 18.0514 164.028 19.0956 163.269 20.167C162.51 21.2385 161.913 22.2827 161.263 23.2592H169.911V26.4734H156.559V24.195C157.019 23.3677 157.575 22.4319 158.24 21.4148C158.904 20.3976 159.595 19.3533 160.314 18.3226C161.032 17.2919 161.764 16.2747 162.496 15.2982C163.228 14.3218 163.933 13.4674 164.57 12.6943H156.952V9.49365H169.654V12.1247Z" fill="#171717"/>
<path fill-rule="evenodd" clip-rule="evenodd" d="M25.8649 2.69017e-05C32.8697 -0.00260579 39.6161 2.64653 44.7489 7.41533C49.8818 12.1841 53.021 18.7194 53.5359 25.7083C54.0508 32.6973 51.9034 39.6224 47.5249 45.0926C43.1464 50.5628 36.8612 54.1729 29.9317 55.1979C31.1104 53.4234 32.1138 51.5384 32.9276 49.5696C33.3031 48.6828 33.6334 47.7775 33.9172 46.8572L33.9985 46.613L33.7681 46.5181H33.6732C32.1464 45.8224 30.7662 44.842 29.6064 43.6294C27.3566 41.2889 26.1195 38.1557 26.1631 34.9089V34.7597C26.1551 32.7975 26.6201 30.8622 27.5187 29.1179C28.2773 27.6793 29.2821 26.3848 30.4875 25.2934C31.0459 24.7931 31.6443 24.3395 32.2769 23.9372L32.5074 23.788L32.3582 23.5574C31.152 21.7924 29.5485 20.3354 27.6766 19.3037C25.8048 18.2719 23.7169 17.6943 21.5812 17.6172H20.6594C18.6131 17.6958 16.5994 18.1557 14.7218 18.9734C13.3966 19.633 11.9801 20.0901 10.5195 20.3297C9.10359 20.1367 7.7294 19.7105 6.45267 19.0684C4.7749 18.2542 2.95781 17.7664 1.09804 17.6308H0.948922H0C2.03609 12.4286 5.59436 7.9625 10.2092 4.81678C14.8241 1.67105 20.2807 -0.00775062 25.8649 2.69017e-05ZM18.8158 13.1553C20.8063 10.8027 21.9138 7.82888 21.9472 4.74677C21.9449 4.35256 21.9223 3.95874 21.8794 3.56687V3.30919H21.6219C18.2288 3.62981 15.0957 5.26524 12.8918 7.86606C10.9367 10.1387 9.80894 13.0071 9.69256 16.0033C9.66518 16.3916 9.66518 16.7814 9.69256 17.1697V17.3867H9.90946H10.5195C12.1257 17.3226 13.6991 16.9112 15.1312 16.1808C16.5634 15.4503 17.8204 14.4182 18.8158 13.1553Z" fill="#171717"/>
</svg>
