<svg width="30" height="32" viewBox="0 0 30 32" fill="none" xmlns="http://www.w3.org/2000/svg">
<path fill-rule="evenodd" clip-rule="evenodd" d="M14.3181 0.500015C18.1957 0.498558 21.9303 1.96504 24.7717 4.6049C27.6131 7.24477 29.3509 10.8625 29.6359 14.7314C29.921 18.6003 28.7322 22.4338 26.3084 25.4619C23.8846 28.4901 20.4053 30.4885 16.5693 31.0559C17.2218 30.0736 17.7773 29.0301 18.2278 27.9402C18.4356 27.4493 18.6185 26.9482 18.7756 26.4387L18.8206 26.3036L18.693 26.251H18.6405C17.7953 25.8659 17.0313 25.3232 16.3892 24.6519C15.1439 23.3563 14.459 21.6219 14.4832 19.8245V19.742C14.4787 18.6557 14.7361 17.5844 15.2336 16.6188C15.6535 15.8224 16.2097 15.1059 16.877 14.5017C17.1861 14.2247 17.5174 13.9736 17.8676 13.7509L17.9951 13.6683L17.9126 13.5407C17.2449 12.5636 16.3572 11.7571 15.321 11.1859C14.2848 10.6148 13.129 10.295 11.9467 10.2524H11.4364C10.3037 10.2959 9.18898 10.5505 8.14959 11.0031C7.41599 11.3682 6.63185 11.6213 5.82328 11.7539C5.03948 11.6471 4.27878 11.4111 3.57201 11.0557C2.64325 10.605 1.63736 10.3349 0.607843 10.2599H0.525296H0C1.12712 7.38012 3.09688 4.9078 5.65154 3.16642C8.20621 1.42505 11.2268 0.495709 14.3181 0.500015ZM10.4159 7.78237C11.5178 6.48005 12.1309 4.83383 12.1493 3.12767C12.1481 2.90945 12.1355 2.69144 12.1118 2.47451V2.33187H11.9692C10.091 2.50936 8.35653 3.41468 7.13652 4.85442C6.05422 6.1125 5.42995 7.70034 5.36552 9.35897C5.35037 9.57392 5.35037 9.78967 5.36552 10.0046V10.1247H5.48559H5.82328C6.71246 10.0893 7.58342 9.86156 8.37622 9.4572C9.16903 9.05285 9.86487 8.48147 10.4159 7.78237Z" fill="#171717"/>
</svg>
