<svg width="171" height="56" viewBox="0 0 171 56" fill="none" xmlns="http://www.w3.org/2000/svg">
<rect width="171" height="56" fill="#171717"/>
<path d="M66.6716 44.2944C68.3797 44.2944 69.2472 43.7113 69.2472 42.5314C69.2549 42.2088 69.1753 41.8902 69.0168 41.6091C68.857 41.3469 68.6447 41.1207 68.3932 40.9446C68.12 40.7473 67.8242 40.5834 67.5121 40.4564L66.4411 40.0495C66.0259 39.9091 65.6186 39.7461 65.2211 39.5613C64.8604 39.3896 64.527 39.1657 64.2315 38.8967C63.9462 38.6431 63.7155 38.3339 63.5537 37.9881C63.3807 37.5859 63.2974 37.1509 63.3097 36.7133C63.2863 36.2583 63.3697 35.8042 63.5533 35.3873C63.737 34.9705 64.0157 34.6025 64.3671 34.3128C65.1923 33.6926 66.2105 33.3851 67.2409 33.4448C67.8987 33.4397 68.5545 33.5171 69.193 33.6754C69.6424 33.7716 70.0729 33.9411 70.4673 34.1772L69.9386 35.5334C69.6044 35.3509 69.2494 35.2098 68.8812 35.1129C68.3502 34.9479 67.797 34.8656 67.2409 34.8688C66.9445 34.8646 66.6486 34.8965 66.3598 34.9638C66.1085 35.0259 65.8699 35.1314 65.6549 35.2757C65.4402 35.4024 65.2646 35.586 65.1474 35.8061C65.0302 36.0262 64.976 36.2744 64.9907 36.5234C64.9825 36.8022 65.048 37.0781 65.1804 37.3235C65.3117 37.5507 65.4924 37.7453 65.7091 37.8932C65.9547 38.0697 66.2182 38.2197 66.4954 38.3407C66.7936 38.4763 67.1189 38.6119 67.485 38.7476C67.851 38.8832 68.461 39.1544 68.8406 39.3579C69.2401 39.5475 69.6099 39.7942 69.9386 40.0902C70.2469 40.3696 70.4919 40.7118 70.6571 41.0938C70.8419 41.5451 70.9297 42.0303 70.9146 42.5178C70.9347 42.9752 70.8427 43.4306 70.6466 43.8443C70.4505 44.2579 70.1562 44.6173 69.7895 44.8912C68.8472 45.4979 67.7358 45.7878 66.6174 45.7184C66.1862 45.7236 65.7553 45.6919 65.3296 45.6235C64.9778 45.571 64.6293 45.4986 64.2857 45.4065C64.0182 45.3328 63.7556 45.2422 63.4995 45.1353L62.9844 44.8912L63.4724 43.535C63.8553 43.7317 64.2544 43.895 64.6653 44.0232C65.3148 44.2226 65.9925 44.3142 66.6716 44.2944Z" fill="white"/>
<path d="M72.9473 45.46V33.7148H80.1184V35.0711H74.6011V38.5567H79.5084V39.9129H74.6011V43.9816H80.5387V45.3379L72.9473 45.46Z" fill="white"/>
<path d="M88.3747 40.5518L89.0661 41.4333C89.3372 41.7949 89.6219 42.2018 89.9201 42.6539C90.2048 43.1014 90.503 43.5761 90.7877 44.01C91.0537 44.4499 91.298 44.9025 91.5197 45.3662H89.7303C89.4999 44.9458 89.2559 44.4983 88.9983 44.01C88.7407 43.5218 88.4561 43.1421 88.1849 42.7488C87.9138 42.3555 87.6427 41.9758 87.3851 41.6232L86.6667 40.701H84.2672V45.2984H82.627V33.9065C83.14 33.7926 83.6613 33.72 84.1859 33.6895C84.7553 33.6895 85.2704 33.6217 85.7449 33.6217C87.0679 33.5328 88.3855 33.86 89.5134 34.5575C90.2031 35.124 90.6553 35.9286 90.7808 36.8124C90.9063 37.6962 90.6959 38.595 90.1912 39.3312C89.7261 39.9158 89.0916 40.3422 88.3747 40.5518ZM85.8804 35.0321C85.1755 35.0321 84.6468 35.0321 84.2672 35.0321V39.4533H85.4466C85.9539 39.4562 86.4609 39.429 86.9649 39.3719C87.3656 39.3344 87.7561 39.2241 88.1172 39.0464C88.4137 38.896 88.6625 38.6659 88.8356 38.3819C88.9968 38.0285 89.0801 37.6447 89.0801 37.2563C89.0801 36.8679 88.9968 36.484 88.8356 36.1306C88.6628 35.8489 88.4259 35.6119 88.1443 35.439C87.8285 35.2631 87.4844 35.1438 87.1276 35.0864C86.7142 35.0324 86.2969 35.0143 85.8804 35.0321Z" fill="white"/>
<path d="M100.264 39.6828H101.917V45.1756L101.335 45.3248L100.453 45.5011L99.3554 45.6367C98.9546 45.68 98.552 45.7026 98.1489 45.7046C97.3796 45.7147 96.6156 45.5766 95.8986 45.2977C95.2331 45.0371 94.6352 44.6291 94.1499 44.1042C93.6351 43.5553 93.2424 42.9036 92.9976 42.1919C92.7176 41.3483 92.5847 40.4629 92.6045 39.5743C92.5901 38.6816 92.7418 37.794 93.0518 36.9567C93.3533 36.2346 93.7957 35.5799 94.3532 35.0309C94.8477 34.5462 95.4327 34.1637 96.0748 33.9052C96.774 33.6299 97.5196 33.4917 98.2709 33.4983C98.7245 33.4948 99.1778 33.5265 99.6265 33.5932C99.9849 33.6466 100.338 33.7282 100.684 33.8374C100.934 33.9101 101.179 34.0007 101.416 34.1086L101.795 34.3121L101.267 35.6683C100.849 35.4142 100.39 35.2352 99.9112 35.1394C99.4264 34.9934 98.9257 34.9068 98.42 34.8817C97.8609 34.874 97.3065 34.9849 96.7933 35.2072C96.3046 35.4143 95.8724 35.7351 95.5326 36.143C95.1737 36.5799 94.9021 37.0818 94.7328 37.6213C94.4966 38.2461 94.3683 38.9065 94.3532 39.5743C94.3439 40.2254 94.4307 40.8744 94.6108 41.5002C94.7554 42.0389 95.0092 42.5421 95.3563 42.9785C95.6886 43.3896 96.1106 43.719 96.59 43.9414C97.1382 44.1747 97.7294 44.2902 98.3251 44.2805C98.7288 44.2857 99.1323 44.2585 99.5316 44.1991C99.775 44.1706 100.015 44.1207 100.25 44.0499L100.264 39.6828Z" fill="white"/>
<path d="M104.493 45.46V33.7148H111.651V35.0711H106.133V38.5567H111.041V39.9129H106.133V43.9816H112.085V45.3379L104.493 45.46Z" fill="white"/>
<path d="M116.964 45.46V40.7538C116.178 39.5467 115.446 38.3532 114.755 37.1733C114.063 35.9933 113.399 34.8405 112.803 33.7148H114.687C115.121 34.6371 115.595 35.5865 116.124 36.5358C116.653 37.4852 117.208 38.4075 117.764 39.2483C118.32 38.3668 118.862 37.4445 119.391 36.5358C119.92 35.6272 120.408 34.6371 120.855 33.7148H122.685C122.075 34.8405 121.424 35.9933 120.733 37.1597C120.042 38.3261 119.377 39.5196 118.55 40.7131V45.46H116.964Z" fill="white"/>
<path d="M68.9494 9.49414C69.2477 10.0366 69.5866 10.7012 69.9797 11.4878C70.3728 12.2744 70.766 13.1423 71.1726 14.0646C71.5793 14.9868 72.0131 15.9361 72.4198 16.899C72.8265 17.8619 73.2196 18.7706 73.572 19.6114L74.7243 16.899C75.1445 15.9361 75.5512 14.9868 75.9715 14.0646C76.3917 13.1423 76.7848 12.2879 77.178 11.4878C77.5711 10.6876 77.8964 10.0366 78.1947 9.49414H81.6786C81.8412 10.6153 81.9903 11.8765 82.1259 13.278C82.275 14.6342 82.397 16.1396 82.4919 17.6449C82.5868 19.1503 82.6953 20.6828 82.7901 22.2018C82.885 23.7208 82.9528 25.1448 83.0206 26.4874H79.2927C79.2927 24.8328 79.1842 23.0426 79.1029 21.0626C79.0216 19.0825 78.8996 17.1567 78.7369 15.1766L77.7473 17.4686C77.3948 18.2959 77.0288 19.1232 76.6764 19.9641L75.6597 22.351L74.8192 24.3039H72.108L71.3082 22.3645C70.9693 21.6051 70.6304 20.8049 70.2779 19.9776C69.9255 19.1503 69.573 18.3095 69.207 17.4822L68.231 15.1902C68.0683 17.1703 67.9463 19.1368 67.865 21.0761C67.7836 23.0155 67.7158 24.8193 67.6616 26.501H63.9473C63.9473 25.1448 64.0964 23.7886 64.1913 22.2154C64.2862 20.6422 64.3675 19.1775 64.4759 17.6585C64.5844 16.1396 64.7064 14.6884 64.842 13.2915C64.9775 11.8946 65.1402 10.5791 65.3029 9.5077L68.9494 9.49414Z" fill="white"/>
<path d="M97.8235 26.4741C97.6337 25.8909 97.4304 25.2806 97.2135 24.6568L96.5628 22.7987H89.9339L89.2832 24.6568L88.6868 26.4741H84.7148C85.352 24.6432 85.962 22.9479 86.5314 21.4018C87.1007 19.8557 87.6701 18.3774 88.2259 17.0076C88.7817 15.6378 89.3103 14.2951 89.839 13.1016C90.3677 11.9081 90.9235 10.6604 91.5064 9.48047H95.1259C95.6817 10.6604 96.2375 11.8674 96.7797 13.1016C97.322 14.3358 97.8642 15.6378 98.42 17.0076C98.9758 18.3774 99.5316 19.8421 100.101 21.4018C100.67 22.9615 101.28 24.6432 101.931 26.4741H97.8235ZM93.228 13.3322C93.1467 13.5763 93.0247 13.9154 92.862 14.3358L92.2927 15.8141C92.0848 16.3747 91.8544 16.985 91.6013 17.645C91.3302 18.3231 91.0726 19.0013 90.8015 19.7607H95.7088C95.4377 19.0148 95.1937 18.3096 94.9497 17.645C94.7056 16.9805 94.4752 16.3566 94.2583 15.8005C94.0414 15.2445 93.8381 14.7562 93.6754 14.3222C93.5127 13.8882 93.3365 13.5627 93.228 13.3322Z" fill="white"/>
<path d="M114.686 9.49414V12.7491H109.576V26.4741H105.753V12.7355H100.629V9.49414H114.686Z" fill="white"/>
<path d="M122.984 26.4736C122.307 25.0496 121.629 23.5713 120.992 22.0253C120.355 20.4792 119.636 18.9738 119.107 17.482C118.579 15.9902 117.969 14.539 117.481 13.1557C116.993 11.7723 116.559 10.5653 116.125 9.48036H120.341C120.653 10.4704 121.019 11.5282 121.398 12.6539C121.778 13.7795 122.185 14.9187 122.591 16.0444C122.998 17.1701 123.378 18.255 123.757 19.2857C124.137 20.3165 124.476 21.2115 124.814 21.9981C125.14 21.2522 125.479 20.3707 125.858 19.2857L127.038 16.0444C127.444 14.9187 127.837 13.7931 128.217 12.6539C128.597 11.5147 128.963 10.4568 129.288 9.4668H133.355C132.975 10.5518 132.541 11.7723 131.999 13.1557C131.457 14.539 130.969 15.963 130.372 17.4684C129.776 18.9738 129.166 20.4928 128.515 22.0253C127.865 23.5578 127.16 25.0361 126.523 26.4601L122.984 26.4736Z" fill="white"/>
<path d="M135.604 9.49414H139.427V26.4741H135.604V9.49414Z" fill="white"/>
<path d="M143.358 26.4741V9.49414H154.827V12.6948H147.222V16.0312H154V19.1641H147.222V23.2327H155.355V26.447L143.358 26.4741Z" fill="white"/>
<path d="M170.47 12.1252C169.941 12.6677 169.318 13.373 168.599 14.2274C167.881 15.0818 167.135 16.0176 166.363 17.0348C165.59 18.0519 164.844 19.0962 164.085 20.1677C163.326 21.2391 162.73 22.2834 162.079 23.2599H170.728V26.4741H157.375V24.1957C157.836 23.3684 158.392 22.4326 159.056 21.4154C159.72 20.3982 160.412 19.3539 161.13 18.3232C161.848 17.2925 162.581 16.2753 163.313 15.2988C164.045 14.3223 164.749 13.4679 165.387 12.6948H157.768V9.49414H170.47V12.1252Z" fill="white"/>
<path fill-rule="evenodd" clip-rule="evenodd" d="M26.6813 2.69017e-05C33.6861 -0.00260579 40.4325 2.64652 45.5654 7.41531C50.6982 12.1841 53.8374 18.7193 54.3523 25.7083C54.8672 32.6973 52.7198 39.6223 48.3413 45.0925C43.9628 50.5627 37.6776 54.1728 30.7481 55.1978C31.9268 53.4233 32.9302 51.5383 33.744 49.5695C34.1195 48.6827 34.4498 47.7774 34.7336 46.8571L34.8149 46.6129L34.5845 46.518H34.4896C32.9628 45.8223 31.5826 44.8419 30.4228 43.6293C28.173 41.2888 26.9359 38.1556 26.9795 34.9089V34.7597C26.9715 32.7974 27.4365 30.8621 28.3351 29.1178C29.0937 27.6792 30.0985 26.3848 31.3039 25.2933C31.8623 24.793 32.4607 24.3394 33.0933 23.9371L33.3238 23.7879L33.1746 23.5574C31.9685 21.7924 30.3649 20.3354 28.493 19.3036C26.6212 18.2719 24.5334 17.6942 22.3976 17.6172H21.4758C19.4295 17.6957 17.4159 18.1557 15.5382 18.9734C14.213 19.6329 12.7965 20.0901 11.3359 20.3296C9.91999 20.1366 8.54581 19.7104 7.26907 19.0683C5.59131 18.2542 3.77422 17.7664 1.91444 17.6308H1.76533H0.816406C2.85249 12.4286 6.41077 7.96248 11.0256 4.81677C15.6405 1.67105 21.0971 -0.00775061 26.6813 2.69017e-05ZM19.6322 13.1553C21.6227 10.8027 22.7302 7.82886 22.7636 4.74676C22.7613 4.35256 22.7387 3.95873 22.6958 3.56686V3.30918H22.4383C19.0452 3.62981 15.9121 5.26523 13.7082 7.86604C11.7531 10.1387 10.6253 13.0071 10.509 16.0033C10.4816 16.3916 10.4816 16.7813 10.509 17.1696V17.3866H10.7259H11.3359C12.9421 17.3226 14.5155 16.9112 15.9476 16.1808C17.3798 15.4503 18.6368 14.4181 19.6322 13.1553Z" fill="white"/>
</svg>
