<svg width="36" height="29" viewBox="0 0 36 29" fill="none" xmlns="http://www.w3.org/2000/svg">
<rect x="14" y="2" width="19" height="19" rx="9.5" fill="#F79E1D"/>
<rect x="1" y="2" width="20" height="20" rx="10" fill="#E91D25"/>
<path d="M14.5 12C14.5 7 18 4.5 18 4.5C19.1667 5.33333 21.5 8 21.5 12C21.5 16 19.1667 18.3333 18 19C18 19 14.5 17 14.5 12Z" fill="#F16122"/>
<path d="M30.125 23.6875C30.125 23.25 29.875 22.9375 29.4375 22.9375C29 22.9375 28.75 23.25 28.75 23.6875C28.75 24.0625 29 24.375 29.4375 24.375C29.875 24.375 30.125 24.125 30.125 23.6875ZM10.75 22.9375C10.3125 22.9375 10 23.25 10 23.6875C10 24.0625 10.3125 24.375 10.75 24.375C11.125 24.375 11.4375 24.125 11.4375 23.6875C11.375 23.25 11.125 22.9375 10.75 22.9375ZM18.0625 22.9375C17.75 22.9375 17.5 23.125 17.5 23.4375H18.6875C18.625 23.125 18.375 22.9375 18.0625 22.9375ZM24.8125 22.9375C24.375 22.9375 24.125 23.25 24.125 23.6875C24.125 24.0625 24.375 24.375 24.8125 24.375C25.25 24.375 25.5 24.125 25.5 23.6875C25.5 23.25 25.25 22.9375 24.8125 22.9375ZM36 3.0625C36 1.4375 34.625 0.0625 33 0.0625H3C1.3125 0.0625 0 1.4375 0 3.0625V25.0625C0 26.75 1.3125 28.0625 3 28.0625H33C34.625 28.0625 36 26.75 36 25.0625V3.0625ZM4 11.8125C4 7.0625 7.875 3.1875 12.625 3.1875C14.3125 3.1875 16 3.6875 17.4375 4.625C12.875 8.3125 12.875 15.3125 17.4375 19C16 19.9375 14.3125 20.5 12.625 20.5C7.875 20.5 4 16.625 4 11.8125ZM18 18.625C13.5625 15.1875 13.5625 8.5 18 5C22.375 8.5 22.375 15.1875 18 18.625ZM9.0625 23.375V24.8125H8.5625C8.5625 23.5625 8.6875 22.9375 8.0625 22.9375C7.375 22.9375 7.5 23.6875 7.5 24.8125H7C7 23.5625 7.125 22.9375 6.5 22.9375C5.75 22.9375 5.9375 23.625 5.9375 24.8125H5.4375V22.5H5.9375V22.8125C6.125 22.5625 6.375 22.4375 6.625 22.4375C6.9375 22.4375 7.1875 22.625 7.375 22.875C7.5625 22.5625 7.875 22.4375 8.1875 22.4375C8.75 22.5 9.0625 22.8125 9.0625 23.375ZM11.875 22.5V24.8125H11.375V24.5625C11.25 24.75 11 24.875 10.6875 24.875C10 24.875 9.5 24.375 9.5 23.6875C9.5 23 10 22.4375 10.6875 22.4375C11 22.4375 11.25 22.625 11.375 22.8125V22.5H11.875ZM14.4375 24.125C14.4375 25 13.0625 25.0625 12.375 24.625L12.625 24.1875C13.0625 24.5 13.875 24.5625 13.875 24.125C13.875 23.75 12.4375 24.125 12.4375 23.1875C12.4375 22.3125 13.75 22.3125 14.375 22.6875L14.125 23.125C13.75 22.875 13 22.8125 13 23.1875C13 23.625 14.4375 23.1875 14.4375 24.125ZM16.625 24.6875C16.3125 24.9375 15.1875 25.125 15.1875 24V23H14.75V22.5H15.1875V21.8125H15.75V22.5H16.5625V23H15.75V24C15.75 24.5625 16.25 24.4375 16.5 24.3125L16.625 24.6875ZM17.4375 23.875C17.625 24.5625 18.3125 24.5625 18.8125 24.1875L19.0625 24.5625C18.375 25.1875 16.9375 24.9375 16.9375 23.6875C16.9375 22.9375 17.4375 22.4375 18.0625 22.4375C18.6875 22.4375 19.1875 22.875 19.1875 23.875H17.4375ZM21.125 22.5L21 23C20.8125 22.875 20.1875 22.8125 20.1875 23.5V24.8125H19.6875V22.5H20.1875V22.8125C20.4375 22.4375 20.875 22.375 21.125 22.5ZM21.8125 23.6875C21.8125 24.375 22.5625 24.625 23.125 24.1875L23.375 24.625C22.6875 25.1875 21.3125 24.9375 21.3125 23.6875C21.3125 22.5 22.625 22.1875 23.375 22.75L23.125 23.125C22.5625 22.75 21.8125 22.9375 21.8125 23.6875ZM26 22.5V24.8125H25.5V24.5625C25 25.1875 23.625 24.875 23.625 23.6875C23.625 22.5 24.9375 22.125 25.5 22.8125V22.5H26ZM28.0625 22.5L27.9375 23C27.6875 22.875 27.125 22.8125 27.125 23.5V24.8125H26.625V22.5H27.125V22.8125C27.375 22.375 27.9375 22.4375 28.0625 22.5ZM30.625 21.625V24.8125H30.125V24.5625C29.625 25.1875 28.25 24.875 28.25 23.6875C28.25 22.5 29.625 22.125 30.125 22.8125V21.625H30.625ZM32 11.8125C32 16.625 28.0625 20.5 23.3125 20.4375C21.625 20.4375 19.9375 19.9375 18.5625 19C23.125 15.3125 23.0625 8.3125 18.5625 4.625C19.9375 3.6875 21.625 3.1875 23.3125 3.1875C28.0625 3.1875 32 7.0625 32 11.8125Z" fill="white"/>
</svg>
