<svg width="36" height="28" viewBox="0 0 36 28" fill="none" xmlns="http://www.w3.org/2000/svg">
<rect x="1" y="6" width="33" height="16" fill="#00579F"/>
<path d="M29.375 12.5L29.1875 11.625C29.0625 12 28.8125 12.625 28.875 12.5625C28.875 12.5625 28.0625 14.75 27.875 15.3125H29.9375C29.8125 14.8125 29.375 12.5 29.375 12.5ZM36 3C36 1.375 34.625 0 33 0H3C1.3125 0 0 1.375 0 3V25C0 26.6875 1.3125 28 3 28H33C34.625 28 36 26.6875 36 25V3ZM9.5 18.75H6.875L4.625 10.3125C3.8125 9.8125 2.9375 9.5 2 9.25V9H6.0625C6.625 9.0625 7.0625 9.25 7.1875 9.875L8.0625 14.3125L8.3125 15.625L10.8125 9H13.4375L9.5 18.75ZM15.375 18.75H12.875L14.4375 9H17L15.375 18.75ZM24.125 15.5625C24.125 17.5625 22.4375 18.875 19.75 18.875C18.625 18.875 17.5625 18.625 17 18.375L17.3125 16.1875L17.625 16.3125C18.5 16.6875 19 16.875 20 16.875C20.75 16.875 21.5 16.5625 21.5 15.875C21.5 15.5 21.1875 15.1875 20.1875 14.6875C19.25 14.25 18 13.4375 18 12.0625C18 10.1875 19.75 8.875 22.25 8.875C23.25 8.875 24 9.0625 24.5 9.25L24.1875 11.375L23.9375 11.25C23.5 11.0625 22.875 10.875 22.0625 10.875C21.0625 10.875 20.625 11.3125 20.625 11.75C20.625 12.1875 21.1875 12.5 22.0625 12.9375C23.5 13.625 24.1875 14.4375 24.125 15.5625ZM33 18.75H30.625C30.625 18.75 30.4375 17.625 30.375 17.3125H27.125C27 17.5625 26.625 18.75 26.625 18.75H23.9375L27.6875 9.8125C27.9375 9.1875 28.375 9 29 9H30.9375L33 18.75Z" fill="white"/>
</svg>
